<mxfile host="app.diagrams.net" modified="2024-05-12T08:48:40.592Z" agent="Mozilla/5.0 (Windows NT 10.0; Win64; x64) AppleWebKit/537.36 (KHTML, like Gecko) Chrome/124.0.0.0 Safari/537.36" etag="X0-A9rLLVQntMQanJojZ" version="24.4.0" type="google">
  <diagram name="Page-1" id="AZCM9EtLze_XjtlYPUtI">
    <mxGraphModel grid="1" page="1" gridSize="10" guides="1" tooltips="1" connect="1" arrows="1" fold="1" pageScale="1" pageWidth="850" pageHeight="1100" math="0" shadow="0">
      <root>
        <mxCell id="0" />
        <mxCell id="1" parent="0" />
        <mxCell id="1o5xl2QNrWOg5wKj_GDE-2" value="&lt;&lt;abstract&gt;&gt;&#xa;Jugada" style="swimlane;fontStyle=0;align=center;verticalAlign=top;childLayout=stackLayout;horizontal=1;startSize=40;horizontalStack=0;resizeParent=1;resizeLast=0;collapsible=1;marginBottom=0;rounded=0;shadow=0;strokeWidth=1;fillColor=#fff2cc;strokeColor=#d6b656;" vertex="1" parent="1">
          <mxGeometry x="280" y="-1240" width="320" height="220" as="geometry">
            <mxRectangle x="110" y="-20" width="160" height="26" as="alternateBounds" />
          </mxGeometry>
        </mxCell>
        <mxCell id="1o5xl2QNrWOg5wKj_GDE-3" value="" style="line;html=1;strokeWidth=1;align=left;verticalAlign=middle;spacingTop=-1;spacingLeft=3;spacingRight=3;rotatable=0;labelPosition=right;points=[];portConstraint=eastwest;" vertex="1" parent="1o5xl2QNrWOg5wKj_GDE-2">
          <mxGeometry y="40" width="320" height="8" as="geometry" />
        </mxCell>
        <mxCell id="1o5xl2QNrWOg5wKj_GDE-4" value="+ &lt;&lt;abstract&gt;&gt; jugarContra( jugada : Jugada ) : String" style="text;align=left;verticalAlign=top;spacingLeft=4;spacingRight=4;overflow=hidden;rotatable=0;points=[[0,0.5],[1,0.5]];portConstraint=eastwest;" vertex="1" parent="1o5xl2QNrWOg5wKj_GDE-2">
          <mxGeometry y="48" width="320" height="26" as="geometry" />
        </mxCell>
        <mxCell id="1o5xl2QNrWOg5wKj_GDE-5" value="+ &lt;&lt;abstract&gt;&gt; jugarContraPiedra() : String" style="text;align=left;verticalAlign=top;spacingLeft=4;spacingRight=4;overflow=hidden;rotatable=0;points=[[0,0.5],[1,0.5]];portConstraint=eastwest;rounded=0;shadow=0;html=0;" vertex="1" parent="1o5xl2QNrWOg5wKj_GDE-2">
          <mxGeometry y="74" width="320" height="26" as="geometry" />
        </mxCell>
        <mxCell id="1o5xl2QNrWOg5wKj_GDE-6" value="+ &lt;&lt;abstract&gt;&gt; jugarContraPapel() : String" style="text;align=left;verticalAlign=top;spacingLeft=4;spacingRight=4;overflow=hidden;rotatable=0;points=[[0,0.5],[1,0.5]];portConstraint=eastwest;rounded=0;shadow=0;html=0;" vertex="1" parent="1o5xl2QNrWOg5wKj_GDE-2">
          <mxGeometry y="100" width="320" height="26" as="geometry" />
        </mxCell>
        <mxCell id="1o5xl2QNrWOg5wKj_GDE-7" value="+ &lt;&lt;abstract&gt;&gt; jugarContraTijera() : String&#x9;&#xa;" style="text;align=left;verticalAlign=top;spacingLeft=4;spacingRight=4;overflow=hidden;rotatable=0;points=[[0,0.5],[1,0.5]];portConstraint=eastwest;rounded=0;shadow=0;html=0;" vertex="1" parent="1o5xl2QNrWOg5wKj_GDE-2">
          <mxGeometry y="126" width="320" height="26" as="geometry" />
        </mxCell>
        <mxCell id="1o5xl2QNrWOg5wKj_GDE-8" style="edgeStyle=orthogonalEdgeStyle;rounded=0;orthogonalLoop=1;jettySize=auto;html=1;exitX=1;exitY=0.5;exitDx=0;exitDy=0;" edge="1" parent="1o5xl2QNrWOg5wKj_GDE-2" source="1o5xl2QNrWOg5wKj_GDE-5" target="1o5xl2QNrWOg5wKj_GDE-5">
          <mxGeometry relative="1" as="geometry" />
        </mxCell>
        <mxCell id="1o5xl2QNrWOg5wKj_GDE-54" value="+ &lt;&lt;abstract&gt;&gt; jugarContraLagarto() : String&#x9;&#xa;" style="text;align=left;verticalAlign=top;spacingLeft=4;spacingRight=4;overflow=hidden;rotatable=0;points=[[0,0.5],[1,0.5]];portConstraint=eastwest;rounded=0;shadow=0;html=0;" vertex="1" parent="1o5xl2QNrWOg5wKj_GDE-2">
          <mxGeometry y="152" width="320" height="26" as="geometry" />
        </mxCell>
        <mxCell id="1o5xl2QNrWOg5wKj_GDE-55" value="+ &lt;&lt;abstract&gt;&gt; jugarContraSpock() : String&#x9;&#xa;" style="text;align=left;verticalAlign=top;spacingLeft=4;spacingRight=4;overflow=hidden;rotatable=0;points=[[0,0.5],[1,0.5]];portConstraint=eastwest;rounded=0;shadow=0;html=0;" vertex="1" parent="1o5xl2QNrWOg5wKj_GDE-2">
          <mxGeometry y="178" width="320" height="26" as="geometry" />
        </mxCell>
        <mxCell id="1o5xl2QNrWOg5wKj_GDE-51" value="&lt;font style=&quot;font-size: 1px;&quot;&gt;*&lt;/font&gt;" style="text;html=1;align=center;verticalAlign=middle;whiteSpace=wrap;rounded=0;" vertex="1" parent="1">
          <mxGeometry x="-280" y="-1280" width="60" height="30" as="geometry" />
        </mxCell>
        <mxCell id="1o5xl2QNrWOg5wKj_GDE-52" value="&lt;b style=&quot;&quot;&gt;&lt;i&gt;&lt;font style=&quot;font-size: 20px;&quot;&gt;ejercicio_02_PiedraPapelTijera&lt;/font&gt;&lt;/i&gt;&lt;/b&gt;" style="text;html=1;align=center;verticalAlign=middle;resizable=0;points=[];autosize=1;strokeColor=none;fillColor=none;" vertex="1" parent="1">
          <mxGeometry x="840" y="-640" width="320" height="40" as="geometry" />
        </mxCell>
        <mxCell id="1o5xl2QNrWOg5wKj_GDE-53" value="&lt;font style=&quot;font-size: 1px;&quot;&gt;1&lt;/font&gt;" style="text;html=1;align=center;verticalAlign=middle;whiteSpace=wrap;rounded=0;" vertex="1" parent="1">
          <mxGeometry x="160" y="-1120" width="20" height="30" as="geometry" />
        </mxCell>
        <mxCell id="1o5xl2QNrWOg5wKj_GDE-141" style="edgeStyle=orthogonalEdgeStyle;rounded=0;orthogonalLoop=1;jettySize=auto;html=1;endArrow=block;endFill=0;endSize=12;startSize=12;" edge="1" parent="1" source="1o5xl2QNrWOg5wKj_GDE-56" target="1o5xl2QNrWOg5wKj_GDE-2">
          <mxGeometry relative="1" as="geometry">
            <Array as="points">
              <mxPoint x="160" y="-960" />
              <mxPoint x="440" y="-960" />
            </Array>
          </mxGeometry>
        </mxCell>
        <mxCell id="1o5xl2QNrWOg5wKj_GDE-56" value="Papel" style="swimlane;fontStyle=0;align=center;verticalAlign=top;childLayout=stackLayout;horizontal=1;startSize=40;horizontalStack=0;resizeParent=1;resizeLast=0;collapsible=1;marginBottom=0;rounded=0;shadow=0;strokeWidth=1;fillColor=#fff2cc;strokeColor=#d6b656;" vertex="1" parent="1">
          <mxGeometry x="40" y="-920" width="240" height="220" as="geometry">
            <mxRectangle x="110" y="-20" width="160" height="26" as="alternateBounds" />
          </mxGeometry>
        </mxCell>
        <mxCell id="1o5xl2QNrWOg5wKj_GDE-57" value="" style="line;html=1;strokeWidth=1;align=left;verticalAlign=middle;spacingTop=-1;spacingLeft=3;spacingRight=3;rotatable=0;labelPosition=right;points=[];portConstraint=eastwest;" vertex="1" parent="1o5xl2QNrWOg5wKj_GDE-56">
          <mxGeometry y="40" width="240" height="8" as="geometry" />
        </mxCell>
        <mxCell id="1o5xl2QNrWOg5wKj_GDE-58" value="+ jugarContra( jugada : Jugada ) : String" style="text;align=left;verticalAlign=top;spacingLeft=4;spacingRight=4;overflow=hidden;rotatable=0;points=[[0,0.5],[1,0.5]];portConstraint=eastwest;" vertex="1" parent="1o5xl2QNrWOg5wKj_GDE-56">
          <mxGeometry y="48" width="240" height="26" as="geometry" />
        </mxCell>
        <mxCell id="1o5xl2QNrWOg5wKj_GDE-59" value="+ jugarContraPiedra() : String" style="text;align=left;verticalAlign=top;spacingLeft=4;spacingRight=4;overflow=hidden;rotatable=0;points=[[0,0.5],[1,0.5]];portConstraint=eastwest;rounded=0;shadow=0;html=0;" vertex="1" parent="1o5xl2QNrWOg5wKj_GDE-56">
          <mxGeometry y="74" width="240" height="26" as="geometry" />
        </mxCell>
        <mxCell id="1o5xl2QNrWOg5wKj_GDE-60" value="+ jugarContraPapel() : String" style="text;align=left;verticalAlign=top;spacingLeft=4;spacingRight=4;overflow=hidden;rotatable=0;points=[[0,0.5],[1,0.5]];portConstraint=eastwest;rounded=0;shadow=0;html=0;" vertex="1" parent="1o5xl2QNrWOg5wKj_GDE-56">
          <mxGeometry y="100" width="240" height="26" as="geometry" />
        </mxCell>
        <mxCell id="1o5xl2QNrWOg5wKj_GDE-61" value="+ jugarContraTijera() : String&#x9;&#xa;" style="text;align=left;verticalAlign=top;spacingLeft=4;spacingRight=4;overflow=hidden;rotatable=0;points=[[0,0.5],[1,0.5]];portConstraint=eastwest;rounded=0;shadow=0;html=0;" vertex="1" parent="1o5xl2QNrWOg5wKj_GDE-56">
          <mxGeometry y="126" width="240" height="26" as="geometry" />
        </mxCell>
        <mxCell id="1o5xl2QNrWOg5wKj_GDE-62" style="edgeStyle=orthogonalEdgeStyle;rounded=0;orthogonalLoop=1;jettySize=auto;html=1;exitX=1;exitY=0.5;exitDx=0;exitDy=0;" edge="1" parent="1o5xl2QNrWOg5wKj_GDE-56" source="1o5xl2QNrWOg5wKj_GDE-59" target="1o5xl2QNrWOg5wKj_GDE-59">
          <mxGeometry relative="1" as="geometry" />
        </mxCell>
        <mxCell id="1o5xl2QNrWOg5wKj_GDE-63" value="+ jugarContraLagarto() : String&#x9;&#xa;" style="text;align=left;verticalAlign=top;spacingLeft=4;spacingRight=4;overflow=hidden;rotatable=0;points=[[0,0.5],[1,0.5]];portConstraint=eastwest;rounded=0;shadow=0;html=0;" vertex="1" parent="1o5xl2QNrWOg5wKj_GDE-56">
          <mxGeometry y="152" width="240" height="26" as="geometry" />
        </mxCell>
        <mxCell id="1o5xl2QNrWOg5wKj_GDE-64" value="+ jugarContraSpock() : String&#x9;&#xa;" style="text;align=left;verticalAlign=top;spacingLeft=4;spacingRight=4;overflow=hidden;rotatable=0;points=[[0,0.5],[1,0.5]];portConstraint=eastwest;rounded=0;shadow=0;html=0;" vertex="1" parent="1o5xl2QNrWOg5wKj_GDE-56">
          <mxGeometry y="178" width="240" height="26" as="geometry" />
        </mxCell>
        <mxCell id="1o5xl2QNrWOg5wKj_GDE-140" style="edgeStyle=orthogonalEdgeStyle;rounded=0;orthogonalLoop=1;jettySize=auto;html=1;endArrow=block;endFill=0;endSize=12;startSize=12;" edge="1" parent="1" source="1o5xl2QNrWOg5wKj_GDE-101" target="1o5xl2QNrWOg5wKj_GDE-2">
          <mxGeometry relative="1" as="geometry" />
        </mxCell>
        <mxCell id="1o5xl2QNrWOg5wKj_GDE-101" value="Tijera" style="swimlane;fontStyle=0;align=center;verticalAlign=top;childLayout=stackLayout;horizontal=1;startSize=40;horizontalStack=0;resizeParent=1;resizeLast=0;collapsible=1;marginBottom=0;rounded=0;shadow=0;strokeWidth=1;fillColor=#fff2cc;strokeColor=#d6b656;" vertex="1" parent="1">
          <mxGeometry x="320" y="-920" width="240" height="220" as="geometry">
            <mxRectangle x="110" y="-20" width="160" height="26" as="alternateBounds" />
          </mxGeometry>
        </mxCell>
        <mxCell id="1o5xl2QNrWOg5wKj_GDE-102" value="" style="line;html=1;strokeWidth=1;align=left;verticalAlign=middle;spacingTop=-1;spacingLeft=3;spacingRight=3;rotatable=0;labelPosition=right;points=[];portConstraint=eastwest;" vertex="1" parent="1o5xl2QNrWOg5wKj_GDE-101">
          <mxGeometry y="40" width="240" height="8" as="geometry" />
        </mxCell>
        <mxCell id="1o5xl2QNrWOg5wKj_GDE-103" value="+ jugarContra( jugada : Jugada ) : String" style="text;align=left;verticalAlign=top;spacingLeft=4;spacingRight=4;overflow=hidden;rotatable=0;points=[[0,0.5],[1,0.5]];portConstraint=eastwest;" vertex="1" parent="1o5xl2QNrWOg5wKj_GDE-101">
          <mxGeometry y="48" width="240" height="26" as="geometry" />
        </mxCell>
        <mxCell id="1o5xl2QNrWOg5wKj_GDE-104" value="+ jugarContraPiedra() : String" style="text;align=left;verticalAlign=top;spacingLeft=4;spacingRight=4;overflow=hidden;rotatable=0;points=[[0,0.5],[1,0.5]];portConstraint=eastwest;rounded=0;shadow=0;html=0;" vertex="1" parent="1o5xl2QNrWOg5wKj_GDE-101">
          <mxGeometry y="74" width="240" height="26" as="geometry" />
        </mxCell>
        <mxCell id="1o5xl2QNrWOg5wKj_GDE-105" value="+ jugarContraPapel() : String" style="text;align=left;verticalAlign=top;spacingLeft=4;spacingRight=4;overflow=hidden;rotatable=0;points=[[0,0.5],[1,0.5]];portConstraint=eastwest;rounded=0;shadow=0;html=0;" vertex="1" parent="1o5xl2QNrWOg5wKj_GDE-101">
          <mxGeometry y="100" width="240" height="26" as="geometry" />
        </mxCell>
        <mxCell id="1o5xl2QNrWOg5wKj_GDE-106" value="+ jugarContraTijera() : String&#x9;&#xa;" style="text;align=left;verticalAlign=top;spacingLeft=4;spacingRight=4;overflow=hidden;rotatable=0;points=[[0,0.5],[1,0.5]];portConstraint=eastwest;rounded=0;shadow=0;html=0;" vertex="1" parent="1o5xl2QNrWOg5wKj_GDE-101">
          <mxGeometry y="126" width="240" height="26" as="geometry" />
        </mxCell>
        <mxCell id="1o5xl2QNrWOg5wKj_GDE-107" style="edgeStyle=orthogonalEdgeStyle;rounded=0;orthogonalLoop=1;jettySize=auto;html=1;exitX=1;exitY=0.5;exitDx=0;exitDy=0;" edge="1" parent="1o5xl2QNrWOg5wKj_GDE-101" source="1o5xl2QNrWOg5wKj_GDE-104" target="1o5xl2QNrWOg5wKj_GDE-104">
          <mxGeometry relative="1" as="geometry" />
        </mxCell>
        <mxCell id="1o5xl2QNrWOg5wKj_GDE-108" value="+ jugarContraLagarto() : String&#x9;&#xa;" style="text;align=left;verticalAlign=top;spacingLeft=4;spacingRight=4;overflow=hidden;rotatable=0;points=[[0,0.5],[1,0.5]];portConstraint=eastwest;rounded=0;shadow=0;html=0;" vertex="1" parent="1o5xl2QNrWOg5wKj_GDE-101">
          <mxGeometry y="152" width="240" height="26" as="geometry" />
        </mxCell>
        <mxCell id="1o5xl2QNrWOg5wKj_GDE-109" value="+ jugarContraSpock() : String&#x9;&#xa;" style="text;align=left;verticalAlign=top;spacingLeft=4;spacingRight=4;overflow=hidden;rotatable=0;points=[[0,0.5],[1,0.5]];portConstraint=eastwest;rounded=0;shadow=0;html=0;" vertex="1" parent="1o5xl2QNrWOg5wKj_GDE-101">
          <mxGeometry y="178" width="240" height="26" as="geometry" />
        </mxCell>
        <mxCell id="1o5xl2QNrWOg5wKj_GDE-139" style="edgeStyle=orthogonalEdgeStyle;rounded=0;orthogonalLoop=1;jettySize=auto;html=1;endArrow=block;endFill=0;endSize=12;startSize=12;" edge="1" parent="1" source="1o5xl2QNrWOg5wKj_GDE-110" target="1o5xl2QNrWOg5wKj_GDE-2">
          <mxGeometry relative="1" as="geometry">
            <Array as="points">
              <mxPoint x="720" y="-960" />
              <mxPoint x="440" y="-960" />
            </Array>
          </mxGeometry>
        </mxCell>
        <mxCell id="1o5xl2QNrWOg5wKj_GDE-110" value="Lagarto " style="swimlane;fontStyle=0;align=center;verticalAlign=top;childLayout=stackLayout;horizontal=1;startSize=40;horizontalStack=0;resizeParent=1;resizeLast=0;collapsible=1;marginBottom=0;rounded=0;shadow=0;strokeWidth=1;fillColor=#fff2cc;strokeColor=#d6b656;" vertex="1" parent="1">
          <mxGeometry x="600" y="-920" width="240" height="220" as="geometry">
            <mxRectangle x="110" y="-20" width="160" height="26" as="alternateBounds" />
          </mxGeometry>
        </mxCell>
        <mxCell id="1o5xl2QNrWOg5wKj_GDE-111" value="" style="line;html=1;strokeWidth=1;align=left;verticalAlign=middle;spacingTop=-1;spacingLeft=3;spacingRight=3;rotatable=0;labelPosition=right;points=[];portConstraint=eastwest;" vertex="1" parent="1o5xl2QNrWOg5wKj_GDE-110">
          <mxGeometry y="40" width="240" height="8" as="geometry" />
        </mxCell>
        <mxCell id="1o5xl2QNrWOg5wKj_GDE-112" value="+ jugarContra( jugada : Jugada ) : String" style="text;align=left;verticalAlign=top;spacingLeft=4;spacingRight=4;overflow=hidden;rotatable=0;points=[[0,0.5],[1,0.5]];portConstraint=eastwest;" vertex="1" parent="1o5xl2QNrWOg5wKj_GDE-110">
          <mxGeometry y="48" width="240" height="26" as="geometry" />
        </mxCell>
        <mxCell id="1o5xl2QNrWOg5wKj_GDE-113" value="+ jugarContraPiedra() : String" style="text;align=left;verticalAlign=top;spacingLeft=4;spacingRight=4;overflow=hidden;rotatable=0;points=[[0,0.5],[1,0.5]];portConstraint=eastwest;rounded=0;shadow=0;html=0;" vertex="1" parent="1o5xl2QNrWOg5wKj_GDE-110">
          <mxGeometry y="74" width="240" height="26" as="geometry" />
        </mxCell>
        <mxCell id="1o5xl2QNrWOg5wKj_GDE-114" value="+ jugarContraPapel() : String" style="text;align=left;verticalAlign=top;spacingLeft=4;spacingRight=4;overflow=hidden;rotatable=0;points=[[0,0.5],[1,0.5]];portConstraint=eastwest;rounded=0;shadow=0;html=0;" vertex="1" parent="1o5xl2QNrWOg5wKj_GDE-110">
          <mxGeometry y="100" width="240" height="26" as="geometry" />
        </mxCell>
        <mxCell id="1o5xl2QNrWOg5wKj_GDE-115" value="+ jugarContraTijera() : String&#x9;&#xa;" style="text;align=left;verticalAlign=top;spacingLeft=4;spacingRight=4;overflow=hidden;rotatable=0;points=[[0,0.5],[1,0.5]];portConstraint=eastwest;rounded=0;shadow=0;html=0;" vertex="1" parent="1o5xl2QNrWOg5wKj_GDE-110">
          <mxGeometry y="126" width="240" height="26" as="geometry" />
        </mxCell>
        <mxCell id="1o5xl2QNrWOg5wKj_GDE-116" style="edgeStyle=orthogonalEdgeStyle;rounded=0;orthogonalLoop=1;jettySize=auto;html=1;exitX=1;exitY=0.5;exitDx=0;exitDy=0;" edge="1" parent="1o5xl2QNrWOg5wKj_GDE-110" source="1o5xl2QNrWOg5wKj_GDE-113" target="1o5xl2QNrWOg5wKj_GDE-113">
          <mxGeometry relative="1" as="geometry" />
        </mxCell>
        <mxCell id="1o5xl2QNrWOg5wKj_GDE-117" value="+ jugarContraLagarto() : String&#x9;&#xa;" style="text;align=left;verticalAlign=top;spacingLeft=4;spacingRight=4;overflow=hidden;rotatable=0;points=[[0,0.5],[1,0.5]];portConstraint=eastwest;rounded=0;shadow=0;html=0;" vertex="1" parent="1o5xl2QNrWOg5wKj_GDE-110">
          <mxGeometry y="152" width="240" height="26" as="geometry" />
        </mxCell>
        <mxCell id="1o5xl2QNrWOg5wKj_GDE-118" value="+ jugarContraSpock() : String&#x9;&#xa;" style="text;align=left;verticalAlign=top;spacingLeft=4;spacingRight=4;overflow=hidden;rotatable=0;points=[[0,0.5],[1,0.5]];portConstraint=eastwest;rounded=0;shadow=0;html=0;" vertex="1" parent="1o5xl2QNrWOg5wKj_GDE-110">
          <mxGeometry y="178" width="240" height="26" as="geometry" />
        </mxCell>
        <mxCell id="1o5xl2QNrWOg5wKj_GDE-137" style="edgeStyle=orthogonalEdgeStyle;rounded=0;orthogonalLoop=1;jettySize=auto;html=1;endArrow=block;endFill=0;endSize=12;startSize=12;" edge="1" parent="1" source="1o5xl2QNrWOg5wKj_GDE-119" target="1o5xl2QNrWOg5wKj_GDE-2">
          <mxGeometry relative="1" as="geometry">
            <Array as="points">
              <mxPoint x="-120" y="-960" />
              <mxPoint x="440" y="-960" />
            </Array>
          </mxGeometry>
        </mxCell>
        <mxCell id="1o5xl2QNrWOg5wKj_GDE-119" value="Piedra" style="swimlane;fontStyle=0;align=center;verticalAlign=top;childLayout=stackLayout;horizontal=1;startSize=40;horizontalStack=0;resizeParent=1;resizeLast=0;collapsible=1;marginBottom=0;rounded=0;shadow=0;strokeWidth=1;fillColor=#fff2cc;strokeColor=#d6b656;" vertex="1" parent="1">
          <mxGeometry x="-240" y="-920" width="240" height="220" as="geometry">
            <mxRectangle x="110" y="-20" width="160" height="26" as="alternateBounds" />
          </mxGeometry>
        </mxCell>
        <mxCell id="1o5xl2QNrWOg5wKj_GDE-120" value="" style="line;html=1;strokeWidth=1;align=left;verticalAlign=middle;spacingTop=-1;spacingLeft=3;spacingRight=3;rotatable=0;labelPosition=right;points=[];portConstraint=eastwest;" vertex="1" parent="1o5xl2QNrWOg5wKj_GDE-119">
          <mxGeometry y="40" width="240" height="8" as="geometry" />
        </mxCell>
        <mxCell id="1o5xl2QNrWOg5wKj_GDE-121" value="+ jugarContra( jugada : Jugada ) : String" style="text;align=left;verticalAlign=top;spacingLeft=4;spacingRight=4;overflow=hidden;rotatable=0;points=[[0,0.5],[1,0.5]];portConstraint=eastwest;" vertex="1" parent="1o5xl2QNrWOg5wKj_GDE-119">
          <mxGeometry y="48" width="240" height="26" as="geometry" />
        </mxCell>
        <mxCell id="1o5xl2QNrWOg5wKj_GDE-122" value="+ jugarContraPiedra() : String" style="text;align=left;verticalAlign=top;spacingLeft=4;spacingRight=4;overflow=hidden;rotatable=0;points=[[0,0.5],[1,0.5]];portConstraint=eastwest;rounded=0;shadow=0;html=0;" vertex="1" parent="1o5xl2QNrWOg5wKj_GDE-119">
          <mxGeometry y="74" width="240" height="26" as="geometry" />
        </mxCell>
        <mxCell id="1o5xl2QNrWOg5wKj_GDE-123" value="+ jugarContraPapel() : String" style="text;align=left;verticalAlign=top;spacingLeft=4;spacingRight=4;overflow=hidden;rotatable=0;points=[[0,0.5],[1,0.5]];portConstraint=eastwest;rounded=0;shadow=0;html=0;" vertex="1" parent="1o5xl2QNrWOg5wKj_GDE-119">
          <mxGeometry y="100" width="240" height="26" as="geometry" />
        </mxCell>
        <mxCell id="1o5xl2QNrWOg5wKj_GDE-124" value="+ jugarContraTijera() : String&#x9;&#xa;" style="text;align=left;verticalAlign=top;spacingLeft=4;spacingRight=4;overflow=hidden;rotatable=0;points=[[0,0.5],[1,0.5]];portConstraint=eastwest;rounded=0;shadow=0;html=0;" vertex="1" parent="1o5xl2QNrWOg5wKj_GDE-119">
          <mxGeometry y="126" width="240" height="26" as="geometry" />
        </mxCell>
        <mxCell id="1o5xl2QNrWOg5wKj_GDE-125" style="edgeStyle=orthogonalEdgeStyle;rounded=0;orthogonalLoop=1;jettySize=auto;html=1;exitX=1;exitY=0.5;exitDx=0;exitDy=0;" edge="1" parent="1o5xl2QNrWOg5wKj_GDE-119" source="1o5xl2QNrWOg5wKj_GDE-122" target="1o5xl2QNrWOg5wKj_GDE-122">
          <mxGeometry relative="1" as="geometry" />
        </mxCell>
        <mxCell id="1o5xl2QNrWOg5wKj_GDE-126" value="+ jugarContraLagarto() : String&#x9;&#xa;" style="text;align=left;verticalAlign=top;spacingLeft=4;spacingRight=4;overflow=hidden;rotatable=0;points=[[0,0.5],[1,0.5]];portConstraint=eastwest;rounded=0;shadow=0;html=0;" vertex="1" parent="1o5xl2QNrWOg5wKj_GDE-119">
          <mxGeometry y="152" width="240" height="26" as="geometry" />
        </mxCell>
        <mxCell id="1o5xl2QNrWOg5wKj_GDE-127" value="+ jugarContraSpock() : String&#x9;&#xa;" style="text;align=left;verticalAlign=top;spacingLeft=4;spacingRight=4;overflow=hidden;rotatable=0;points=[[0,0.5],[1,0.5]];portConstraint=eastwest;rounded=0;shadow=0;html=0;" vertex="1" parent="1o5xl2QNrWOg5wKj_GDE-119">
          <mxGeometry y="178" width="240" height="26" as="geometry" />
        </mxCell>
        <mxCell id="1o5xl2QNrWOg5wKj_GDE-138" style="edgeStyle=orthogonalEdgeStyle;rounded=0;orthogonalLoop=1;jettySize=auto;html=1;endArrow=block;endFill=0;endSize=12;startSize=12;" edge="1" parent="1" source="1o5xl2QNrWOg5wKj_GDE-128" target="1o5xl2QNrWOg5wKj_GDE-2">
          <mxGeometry relative="1" as="geometry">
            <Array as="points">
              <mxPoint x="1000" y="-960" />
              <mxPoint x="440" y="-960" />
            </Array>
          </mxGeometry>
        </mxCell>
        <mxCell id="1o5xl2QNrWOg5wKj_GDE-128" value="Spock" style="swimlane;fontStyle=0;align=center;verticalAlign=top;childLayout=stackLayout;horizontal=1;startSize=40;horizontalStack=0;resizeParent=1;resizeLast=0;collapsible=1;marginBottom=0;rounded=0;shadow=0;strokeWidth=1;fillColor=#fff2cc;strokeColor=#d6b656;" vertex="1" parent="1">
          <mxGeometry x="880" y="-920" width="240" height="220" as="geometry">
            <mxRectangle x="110" y="-20" width="160" height="26" as="alternateBounds" />
          </mxGeometry>
        </mxCell>
        <mxCell id="1o5xl2QNrWOg5wKj_GDE-129" value="" style="line;html=1;strokeWidth=1;align=left;verticalAlign=middle;spacingTop=-1;spacingLeft=3;spacingRight=3;rotatable=0;labelPosition=right;points=[];portConstraint=eastwest;" vertex="1" parent="1o5xl2QNrWOg5wKj_GDE-128">
          <mxGeometry y="40" width="240" height="8" as="geometry" />
        </mxCell>
        <mxCell id="1o5xl2QNrWOg5wKj_GDE-130" value="+ jugarContra( jugada : Jugada ) : String" style="text;align=left;verticalAlign=top;spacingLeft=4;spacingRight=4;overflow=hidden;rotatable=0;points=[[0,0.5],[1,0.5]];portConstraint=eastwest;" vertex="1" parent="1o5xl2QNrWOg5wKj_GDE-128">
          <mxGeometry y="48" width="240" height="26" as="geometry" />
        </mxCell>
        <mxCell id="1o5xl2QNrWOg5wKj_GDE-131" value="+ jugarContraPiedra() : String" style="text;align=left;verticalAlign=top;spacingLeft=4;spacingRight=4;overflow=hidden;rotatable=0;points=[[0,0.5],[1,0.5]];portConstraint=eastwest;rounded=0;shadow=0;html=0;" vertex="1" parent="1o5xl2QNrWOg5wKj_GDE-128">
          <mxGeometry y="74" width="240" height="26" as="geometry" />
        </mxCell>
        <mxCell id="1o5xl2QNrWOg5wKj_GDE-132" value="+ jugarContraPapel() : String" style="text;align=left;verticalAlign=top;spacingLeft=4;spacingRight=4;overflow=hidden;rotatable=0;points=[[0,0.5],[1,0.5]];portConstraint=eastwest;rounded=0;shadow=0;html=0;" vertex="1" parent="1o5xl2QNrWOg5wKj_GDE-128">
          <mxGeometry y="100" width="240" height="26" as="geometry" />
        </mxCell>
        <mxCell id="1o5xl2QNrWOg5wKj_GDE-133" value="+ jugarContraTijera() : String&#x9;&#xa;" style="text;align=left;verticalAlign=top;spacingLeft=4;spacingRight=4;overflow=hidden;rotatable=0;points=[[0,0.5],[1,0.5]];portConstraint=eastwest;rounded=0;shadow=0;html=0;" vertex="1" parent="1o5xl2QNrWOg5wKj_GDE-128">
          <mxGeometry y="126" width="240" height="26" as="geometry" />
        </mxCell>
        <mxCell id="1o5xl2QNrWOg5wKj_GDE-134" style="edgeStyle=orthogonalEdgeStyle;rounded=0;orthogonalLoop=1;jettySize=auto;html=1;exitX=1;exitY=0.5;exitDx=0;exitDy=0;" edge="1" parent="1o5xl2QNrWOg5wKj_GDE-128" source="1o5xl2QNrWOg5wKj_GDE-131" target="1o5xl2QNrWOg5wKj_GDE-131">
          <mxGeometry relative="1" as="geometry" />
        </mxCell>
        <mxCell id="1o5xl2QNrWOg5wKj_GDE-135" value="+ jugarContraLagarto() : String&#x9;&#xa;" style="text;align=left;verticalAlign=top;spacingLeft=4;spacingRight=4;overflow=hidden;rotatable=0;points=[[0,0.5],[1,0.5]];portConstraint=eastwest;rounded=0;shadow=0;html=0;" vertex="1" parent="1o5xl2QNrWOg5wKj_GDE-128">
          <mxGeometry y="152" width="240" height="26" as="geometry" />
        </mxCell>
        <mxCell id="1o5xl2QNrWOg5wKj_GDE-136" value="+ jugarContraSpock() : String&#x9;&#xa;" style="text;align=left;verticalAlign=top;spacingLeft=4;spacingRight=4;overflow=hidden;rotatable=0;points=[[0,0.5],[1,0.5]];portConstraint=eastwest;rounded=0;shadow=0;html=0;" vertex="1" parent="1o5xl2QNrWOg5wKj_GDE-128">
          <mxGeometry y="178" width="240" height="26" as="geometry" />
        </mxCell>
      </root>
    </mxGraphModel>
  </diagram>
</mxfile>
